<svg width="44" height="36" viewBox="0 0 44 36" fill="none" xmlns="http://www.w3.org/2000/svg">
<path d="M17.18 3.18C17.6446 2.71262 18.2175 2.36728 18.8477 2.17468C19.478 1.98207 20.1461 1.94817 20.7926 2.07598C21.4391 2.20379 22.044 2.48935 22.5535 2.90729C23.0631 3.32522 23.4614 3.86257 23.7133 4.47158C23.9651 5.08059 24.0625 5.74238 23.9969 6.39812C23.9313 7.05387 23.7048 7.68325 23.3373 8.23031C22.9699 8.77738 22.4729 9.22519 21.8907 9.53393C21.3085 9.84266 20.659 10.0028 20 10H2M23.18 32.82C23.6446 33.2874 24.2175 33.6327 24.8477 33.8253C25.478 34.0179 26.1461 34.0518 26.7926 33.924C27.4391 33.7962 28.044 33.5106 28.5535 33.0927C29.0631 32.6748 29.4614 32.1374 29.7133 31.5284C29.9651 30.9194 30.0625 30.2576 29.9969 29.6019C29.9313 28.9461 29.7048 28.3167 29.3373 27.7697C28.9699 27.2226 28.4729 26.7748 27.8907 26.4661C27.3085 26.1573 26.659 25.9972 26 26H2M33.46 9.46C34.0417 8.87977 34.7574 8.45183 35.5439 8.21402C36.3303 7.97622 37.1632 7.93587 37.969 8.09657C38.7747 8.25726 39.5284 8.61403 40.1635 9.13533C40.7985 9.65663 41.2953 10.3264 41.61 11.0854C41.9246 11.8444 42.0473 12.6692 41.9673 13.4869C41.8873 14.3046 41.607 15.09 41.1512 15.7736C40.6955 16.4572 40.0783 17.018 39.3542 17.4063C38.6302 17.7946 37.8216 17.9985 37 18H2" stroke="#1E1E1E" stroke-width="4" stroke-linecap="round" stroke-linejoin="round"/>
</svg>
